<svg id="SvgjsSvg1001" width="288" height="288" xmlns="http://www.w3.org/2000/svg" version="1.1" xmlns:xlink="http://www.w3.org/1999/xlink" xmlns:svgjs="http://svgjs.com/svgjs"><defs id="SvgjsDefs1002"></defs><g id="SvgjsG1008" transform="matrix(1,0,0,1,0,0)"><svg xmlns="http://www.w3.org/2000/svg" width="288" height="288" enable-background="new 0 0 100 100" version="1.0" viewBox="0 0 100 100"><path d="M73.337,43.333H80v-20C80,21.494,78.506,20,76.667,20h-20v6.667H68.62L50,45.287l-18.62-18.62l11.953-0.003V20h-20
	C21.494,20,20,21.494,20,23.333v20h6.667V31.38L45.286,50L26.667,68.619l-0.004-11.953H20v20C20,78.506,21.494,80,23.333,80h20
	v-6.666H31.38L50,54.713l18.62,18.621l-11.953,0.002V80h20C78.506,80,80,78.506,80,76.666v-20h-6.667v11.953L54.714,50
	l18.619-18.623L73.337,43.333z" fill="#ffffff" class="color000 svgShape"></path></svg></g></svg>